<svg width="16" height="14" viewBox="0 0 16 14" fill="none" xmlns="http://www.w3.org/2000/svg">
<path d="M15.1722 6.51328L9.83242 1.051C9.77416 1.00078 9.69983 0.972656 9.62148 0.972656H7.84358C7.69492 0.972656 7.62662 1.15748 7.73912 1.25391L12.5244 6.23605H0.768137C0.679744 6.23605 0.607422 6.30837 0.607422 6.39676V7.60212C0.607422 7.69052 0.679744 7.76284 0.768137 7.76284H12.5224L7.73711 12.745C7.62461 12.8434 7.69291 13.0262 7.84157 13.0262H9.67974C9.71791 13.0262 9.75608 13.0122 9.78421 12.9861L15.1722 7.4856C15.2417 7.42513 15.2975 7.35043 15.3357 7.26657C15.3739 7.1827 15.3937 7.09161 15.3937 6.99944C15.3937 6.90728 15.3739 6.81619 15.3357 6.73232C15.2975 6.64845 15.2417 6.57376 15.1722 6.51328Z" fill="currentColor"/>
</svg>
