<svg width="11" height="11" viewBox="0 0 11 11" fill="none" xmlns="http://www.w3.org/2000/svg">
<path d="M5.5 0.5C2.74689 0.5 0.5 2.74707 0.5 5.5C0.5 8.25311 2.74707 10.5 5.5 10.5C8.25311 10.5 10.5 8.25295 10.5 5.5C10.5 2.74689 8.25295 0.5 5.5 0.5ZM5.5 9.91406C3.06607 9.91406 1.08594 7.93393 1.08594 5.5C1.08594 3.06607 3.06607 1.08594 5.5 1.08594C7.93393 1.08594 9.91406 3.06607 9.91406 5.5C9.91406 7.93393 7.93393 9.91406 5.5 9.91406Z" fill="#0950C5"/>
<path d="M6.52949 4.78307C6.79809 4.51736 6.96484 4.14893 6.96484 3.74219C6.96484 2.93447 6.30771 2.27734 5.5 2.27734C4.69229 2.27734 4.03516 2.93447 4.03516 3.74219V7.84375C4.03516 8.00529 3.90373 8.13672 3.74219 8.13672C3.58039 8.13672 3.44922 8.26789 3.44922 8.42969C3.44922 8.59148 3.58039 8.72266 3.74219 8.72266C4.22682 8.72266 4.62109 8.32838 4.62109 7.84375V7.68789C4.93232 7.9668 5.34314 8.13672 5.79297 8.13672C6.76223 8.13672 7.55078 7.34816 7.55078 6.37891C7.55078 5.6725 7.13187 5.06219 6.52949 4.78307ZM5.79297 7.55078C5.1468 7.55078 4.62109 7.02508 4.62109 6.37891C4.62109 6.16705 4.62109 4.09783 4.62109 3.74219C4.62109 3.25756 5.01537 2.86328 5.5 2.86328C5.98463 2.86328 6.37891 3.25756 6.37891 3.74219C6.37891 4.22682 5.98463 4.62109 5.5 4.62109C5.3382 4.62109 5.20703 4.75227 5.20703 4.91406C5.20703 5.07586 5.3382 5.20703 5.5 5.20703C5.56879 5.20703 5.63637 5.20191 5.70264 5.1927C5.73111 5.20191 5.76143 5.20703 5.79297 5.20703C6.43914 5.20703 6.96484 5.73273 6.96484 6.37891C6.96484 7.02508 6.43914 7.55078 5.79297 7.55078Z" fill="#0950C5"/>
</svg>
