<svg viewBox="0 0 17 17" fill="none" xmlns="http://www.w3.org/2000/svg">
<path d="M16.0418 2.687C15.8064 2.45122 15.4245 2.45081 15.1891 2.686L7.95493 9.90106L5.34487 7.06628C5.11934 6.82147 4.73802 6.80559 4.4928 7.03109C4.24777 7.25663 4.23209 7.63813 4.45762 7.88316L7.49281 11.1794C7.60396 11.3003 7.75953 11.3704 7.92356 11.3738C7.92796 11.374 7.93221 11.374 7.93643 11.374C8.09584 11.374 8.24918 11.3107 8.36215 11.1981L16.0406 3.53985C16.2765 3.30469 16.2769 2.92278 16.0418 2.687Z" fill="#28A745" stroke="#28A745" stroke-width="0.5"/>
<path d="M15.897 7.89697C15.5639 7.89697 15.294 8.16691 15.294 8.5C15.294 12.2463 12.2463 15.294 8.5 15.294C4.75388 15.294 1.70603 12.2463 1.70603 8.5C1.70603 4.75388 4.75388 1.70603 8.5 1.70603C8.83306 1.70603 9.10303 1.43609 9.10303 1.10303C9.10303 0.769938 8.83306 0.5 8.5 0.5C4.08875 0.5 0.5 4.08875 0.5 8.5C0.5 12.9111 4.08875 16.5 8.5 16.5C12.9111 16.5 16.5 12.9111 16.5 8.5C16.5 8.16694 16.2301 7.89697 15.897 7.89697Z" fill="#28A745" stroke="#28A745" stroke-width="0.5"/>
</svg>
