<svg width="18" height="18" viewBox="0 0 18 18" fill="none" xmlns="http://www.w3.org/2000/svg">
<path d="M9 17C4.589 17 1 13.411 1 9C1 4.589 4.589 1 9 1C13.411 1 17 4.589 17 9C17 13.411 13.411 17 9 17ZM9 2C5.14 2 2 5.14 2 9C2 12.86 5.14 16 9 16C12.86 16 16 12.86 16 9C16 5.14 12.86 2 9 2ZM11.563 12.075C11.4345 12.075 11.3065 12.026 11.2085 11.928L8.9985 9.707L6.778 11.9175C6.5815 12.112 6.2655 12.111 6.0705 11.916C5.876 11.72 5.8765 11.4035 6.072 11.2085L8.293 8.9985L6.0825 6.778C5.888 6.582 5.8885 6.2655 6.084 6.0705C6.28 5.8755 6.596 5.8765 6.7915 6.072L9.0015 8.293L11.222 6.0825C11.418 5.8875 11.734 5.8885 11.9295 6.084C12.124 6.28 12.1235 6.5965 11.928 6.7915L9.707 9.0015L11.9175 11.222C12.112 11.418 12.1115 11.7345 11.916 11.9295C11.818 12.0265 11.6905 12.075 11.563 12.075V12.075Z" fill="#CB2431" stroke="#CB2431" stroke-width="0.5"/>
</svg>
