<svg viewBox="0 0 18 18" fill="none" xmlns="http://www.w3.org/2000/svg">
<g clip-path="url(#clip0_11_3)">
<path d="M9 18C4.03763 18 0 13.9624 0 9C0 4.03763 4.03763 0 9 0C13.9624 0 18 4.03763 18 9C18 13.9624 13.9624 18 9 18ZM9 1.125C4.6575 1.125 1.125 4.6575 1.125 9C1.125 13.3425 4.6575 16.875 9 16.875C13.3425 16.875 16.875 13.3425 16.875 9C16.875 4.6575 13.3425 1.125 9 1.125ZM11.8834 12.4594C11.7388 12.4594 11.5948 12.4043 11.4846 12.294L8.99831 9.79537L6.50025 12.2822C6.27919 12.501 5.92369 12.4999 5.70431 12.2805C5.4855 12.06 5.48606 11.7039 5.706 11.4846L8.20463 8.99831L5.71781 6.50025C5.499 6.27975 5.49956 5.92369 5.7195 5.70431C5.94 5.48494 6.2955 5.48606 6.51544 5.706L9.00169 8.20463L11.4998 5.71781C11.7203 5.49844 12.0757 5.49956 12.2957 5.7195C12.5145 5.94 12.5139 6.29606 12.294 6.51544L9.79537 9.00169L12.2822 11.4998C12.501 11.7203 12.5004 12.0763 12.2805 12.2957C12.1703 12.4048 12.0268 12.4594 11.8834 12.4594Z" fill="currentColor" stroke="currentColor" stroke-width="0.5"/>
</g>
<defs>
<clipPath id="clip0_11_3">
<rect width="18" height="18" fill="white"/>
</clipPath>
</defs>
</svg>
