<svg width="22" height="23" viewBox="0 0 22 23" fill="none" xmlns="http://www.w3.org/2000/svg">
<path d="M17.3534 25.0001H8.1619V22.4468H6.71302C5.22617 22.4408 3.8964 21.5197 3.36831 20.1299L2.83218 18.6937C2.75757 18.494 2.56664 18.3616 2.35346 18.3618H2.03425C1.58283 18.3623 1.15422 18.1641 0.862687 17.8195C0.571152 17.475 0.446235 17.0195 0.52141 16.5746C0.642773 15.8468 1.31299 15.2979 2.0853 15.2979H3.23423C4.25563 15.2966 5.17961 15.9042 5.58315 16.8426L6.1896 18.2533C6.35042 18.6286 6.71937 18.8721 7.12778 18.8725H8.1619C8.25129 17.6212 8.66605 16.632 9.3746 15.9362L9.51504 15.8021C6.27244 14.7298 4.07686 12.1 4.07686 9.1703C4.08341 7.97162 4.43833 6.80081 5.09807 5.79998V3.67452C5.09789 2.84405 5.29012 2.02461 5.65983 1.28091L5.80662 1.00003H6.6874C7.772 0.995731 8.81322 1.42546 9.57899 2.19366L9.82153 2.4362C11.7433 1.87763 13.7846 1.87763 15.7066 2.4362L15.9492 2.19366C16.7133 1.42714 17.7519 0.997414 18.8342 1.00003H19.715L19.8555 1.28091C20.2252 2.02461 20.4174 2.84405 20.4172 3.67452V5.79998C21.0769 6.80081 21.4319 7.97162 21.4384 9.1703C21.4384 12.1 19.2426 14.7298 16.0002 15.8021L16.1214 15.9235C16.9066 16.6939 17.3504 17.7467 17.3534 18.8469V25.0001ZM9.18311 23.9787H16.3322V18.8469C16.3286 18.0227 15.9954 17.2342 15.4065 16.6574L13.9896 15.2723L14.896 15.0618C18.1448 14.2958 20.4172 11.8766 20.4172 9.1703C20.4101 8.12197 20.0851 7.10038 19.4852 6.24055L19.396 6.11283V3.67452C19.3962 3.10753 19.2855 2.54597 19.0704 2.02143H18.8342C18.0217 2.02068 17.2427 2.34457 16.6704 2.92128L15.981 3.6044L15.681 3.50211C13.7805 2.88743 11.7347 2.88743 9.83425 3.50211L9.5343 3.6044L8.84483 2.92128C8.2726 2.34457 7.49356 2.02068 6.68104 2.02143H6.44486C6.2298 2.54597 6.1191 3.10753 6.11929 3.67452V6.11283L6.0299 6.24055C5.43019 7.10038 5.10518 8.12197 5.09807 9.1703C5.09807 11.8766 7.37032 14.2958 10.6193 15.0554L11.5257 15.266L10.0895 16.6703C9.55973 17.1872 9.25342 17.9532 9.17675 18.9553C9.13374 19.4843 8.69261 19.892 8.1619 19.8937H7.12778C6.31096 19.8933 5.57287 19.4062 5.25123 18.6554L4.65133 17.2448C4.4086 16.6818 3.85358 16.3177 3.24059 16.3192H2.09166C1.81714 16.3192 1.5746 16.5043 1.53645 16.7405C1.51008 16.8884 1.55029 17.0404 1.64622 17.156C1.74215 17.2716 1.88409 17.3391 2.03425 17.3406H2.34691C2.98608 17.3419 3.55775 17.7381 3.78308 18.3362L4.3194 19.766C4.69546 20.7623 5.64804 21.4226 6.71302 21.4256H8.1619C8.72589 21.4256 9.18311 21.8828 9.18311 22.4468V23.9787Z" fill="#37352F" stroke="#37352F" stroke-width="0.4"/>
</svg>
