<svg viewBox="0 0 34 38" fill="none" xmlns="http://www.w3.org/2000/svg">
<g style="mix-blend-mode:multiply">
<ellipse cx="10.361" cy="22.1785" rx="10.361" ry="10.218" fill="#7AB710"/>
<rect width="5.88273" height="12.5823" rx="2.94136" transform="matrix(0.736061 -0.676915 0.687054 0.726607 13.0251 28.2041)" fill="#7AB710"/>
<path d="M5 23.7204H7.6087L8.65217 21.7604L10.4783 25.9604L12.3043 18.9604L13.8696 23.7204H17" stroke="#F8CC62" stroke-width="1.2" stroke-linecap="round" stroke-linejoin="round"/>
</g>
<g style="mix-blend-mode:luminosity">
<path fill-rule="evenodd" clip-rule="evenodd" d="M18.7165 2.88253C18.6671 2.73272 18.5788 2.59875 18.4606 2.49438C18.3423 2.39001 18.1984 2.319 18.0436 2.28865C17.0243 2.08835 15.9757 2.08835 14.9563 2.28865C14.8016 2.31901 14.6577 2.39002 14.5394 2.49439C14.4212 2.59876 14.3329 2.73273 14.2835 2.88253L13.7838 4.3916C13.4648 4.54196 13.1587 4.71821 12.8685 4.91859L11.3125 4.59696C11.1575 4.56514 10.997 4.57493 10.847 4.62532C10.6971 4.67572 10.5633 4.76492 10.459 4.88386C9.77724 5.66729 9.25387 6.57549 8.91788 7.55818C8.86695 7.70745 8.85637 7.86753 8.88722 8.02221C8.91807 8.17688 8.98925 8.32066 9.09356 8.43897L10.1523 9.6265C10.1226 9.97714 10.1226 10.3297 10.1523 10.6803L9.09356 11.8679C8.98925 11.9862 8.91807 12.13 8.88722 12.2847C8.85637 12.4393 8.86695 12.5994 8.91788 12.7487C9.25387 13.7314 9.77724 14.6396 10.459 15.423C10.5632 15.542 10.6971 15.6312 10.847 15.6816C10.9969 15.732 11.1575 15.7418 11.3125 15.7099L12.8685 15.3884C13.1587 15.5887 13.4648 15.7649 13.7838 15.9153L14.2835 17.4244C14.3328 17.5742 14.4212 17.7081 14.5394 17.8125C14.6577 17.9168 14.8016 17.9878 14.9563 18.0182C15.9757 18.2186 17.0243 18.2186 18.0436 18.0182C18.1984 17.9878 18.3423 17.9168 18.4606 17.8125C18.5788 17.7081 18.6672 17.5742 18.7165 17.4244L19.2162 15.9153C19.5352 15.7649 19.8413 15.5887 20.1315 15.3884L21.6875 15.7099C21.8424 15.7418 22.003 15.732 22.1529 15.6816C22.3029 15.6312 22.4367 15.542 22.541 15.423C23.2227 14.6396 23.7461 13.7314 24.0821 12.7487C24.133 12.5994 24.1436 12.4393 24.1128 12.2847C24.0819 12.13 24.0107 11.9862 23.9064 11.8679L22.8477 10.6803C22.8774 10.3297 22.8774 9.97714 22.8477 9.6265L23.9064 8.439C24.0107 8.32068 24.0819 8.1769 24.1128 8.02222C24.1436 7.86754 24.1331 7.70746 24.0821 7.55818C23.7461 6.57549 23.2227 5.66728 22.541 4.88385C22.4367 4.76491 22.3028 4.6757 22.1529 4.62531C22.003 4.57491 21.8424 4.56513 21.6875 4.59695L20.1315 4.91858C19.8413 4.71819 19.5352 4.54194 19.2162 4.39159L18.7165 2.88253ZM16.5 7.16243C15.9084 7.16239 15.3301 7.33778 14.8382 7.66641C14.3464 7.99503 13.963 8.46215 13.7366 9.00867C13.5102 9.55519 13.4509 10.1566 13.5663 10.7368C13.6817 11.317 13.9665 11.85 14.3848 12.2683C14.8031 12.6866 15.336 12.9715 15.9162 13.0869C16.4964 13.2023 17.0978 13.1431 17.6443 12.9167C18.1909 12.6904 18.658 12.307 18.9867 11.8152C19.3153 11.3233 19.4908 10.745 19.4908 10.1535C19.4909 9.76066 19.4137 9.37167 19.2634 9.00874C19.1132 8.64581 18.8929 8.31604 18.6151 8.03827C18.3374 7.7605 18.0076 7.54019 17.6447 7.3899C17.2818 7.23962 16.8928 7.16233 16.5 7.16243Z" fill="url(#paint0_linear_5225_50545)"/>
</g>
<g style="mix-blend-mode:luminosity">
<path fill-rule="evenodd" clip-rule="evenodd" d="M29.0165 15.5251C28.9828 15.4226 28.9223 15.3309 28.8414 15.2595C28.7605 15.1881 28.6621 15.1395 28.5562 15.1188C27.8587 14.9817 27.1413 14.9817 26.4438 15.1188C26.3379 15.1395 26.2395 15.1881 26.1586 15.2595C26.0777 15.331 26.0172 15.4226 25.9835 15.5251L25.6415 16.5576C25.4233 16.6605 25.2138 16.7811 25.0153 16.9182L23.9506 16.6981C23.8446 16.6764 23.7348 16.6831 23.6322 16.7176C23.5296 16.752 23.438 16.8131 23.3667 16.8944C22.9002 17.4305 22.5421 18.0519 22.3122 18.7242C22.2774 18.8264 22.2701 18.9359 22.2912 19.0417C22.3124 19.1476 22.3611 19.2459 22.4324 19.3269L23.1568 20.1394C23.1365 20.3793 23.1365 20.6205 23.1568 20.8604L22.4324 21.673C22.3611 21.754 22.3124 21.8523 22.2912 21.9582C22.2701 22.064 22.2774 22.1735 22.3122 22.2756C22.5421 22.948 22.9002 23.5694 23.3667 24.1055C23.438 24.1868 23.5296 24.2479 23.6322 24.2824C23.7347 24.3169 23.8446 24.3235 23.9506 24.3018L25.0153 24.0817C25.2138 24.2188 25.4233 24.3394 25.6415 24.4423L25.9834 25.4748C26.0172 25.5773 26.0776 25.6689 26.1585 25.7403C26.2395 25.8117 26.3379 25.8603 26.4438 25.8811C27.1412 26.0182 27.8587 26.0182 28.5562 25.8811C28.662 25.8603 28.7605 25.8117 28.8414 25.7403C28.9223 25.6689 28.9828 25.5773 29.0165 25.4748L29.3584 24.4423C29.5767 24.3394 29.7861 24.2188 29.9847 24.0817L31.0493 24.3018C31.1553 24.3235 31.2652 24.3169 31.3678 24.2824C31.4704 24.2479 31.562 24.1869 31.6333 24.1055C32.0998 23.5694 32.4579 22.948 32.6878 22.2756C32.7226 22.1735 32.7298 22.064 32.7087 21.9582C32.6876 21.8523 32.6389 21.754 32.5675 21.673L31.8431 20.8604C31.8635 20.6205 31.8635 20.3793 31.8431 20.1394L32.5675 19.3269C32.6389 19.246 32.6876 19.1476 32.7087 19.0417C32.7298 18.9359 32.7226 18.8264 32.6878 18.7242C32.4579 18.0519 32.0998 17.4305 31.6333 16.8944C31.562 16.8131 31.4703 16.752 31.3678 16.7175C31.2652 16.6831 31.1553 16.6764 31.0493 16.6981L29.9847 16.9182C29.7862 16.7811 29.5767 16.6605 29.3584 16.5576L29.0165 15.5251ZM27.5 18.4535C27.0952 18.4534 26.6996 18.5734 26.363 18.7983C26.0264 19.0231 25.7641 19.3427 25.6092 19.7167C25.4543 20.0906 25.4138 20.5021 25.4927 20.8991C25.5717 21.2961 25.7665 21.6607 26.0527 21.9469C26.3389 22.2332 26.7036 22.4281 27.1005 22.507C27.4975 22.586 27.909 22.5455 28.283 22.3906C28.6569 22.2357 28.9765 21.9735 29.2014 21.6369C29.4263 21.3004 29.5463 20.9047 29.5463 20.5C29.5464 20.2312 29.4935 19.9651 29.3907 19.7167C29.2879 19.4684 29.1372 19.2428 28.9472 19.0527C28.7571 18.8627 28.5315 18.7119 28.2832 18.6091C28.0349 18.5063 27.7687 18.4534 27.5 18.4535Z" fill="url(#paint1_linear_5225_50545)"/>
</g>
<defs>
<linearGradient id="paint0_linear_5225_50545" x1="11.1396" y1="16.0494" x2="21.8604" y2="4.25753" gradientUnits="userSpaceOnUse">
<stop stop-color="#0056E0"/>
<stop offset="0.01" stop-color="#0056E0"/>
<stop offset="1" stop-color="#00E5B8"/>
</linearGradient>
<linearGradient id="paint1_linear_5225_50545" x1="23.8324" y1="24.534" x2="31.1676" y2="16.4659" gradientUnits="userSpaceOnUse">
<stop stop-color="#0056E0"/>
<stop offset="0.01" stop-color="#0056E0"/>
<stop offset="1" stop-color="#00E5B8"/>
</linearGradient>
</defs>
</svg>
