<svg width="15" height="14" viewBox="0 0 15 14" fill="none" xmlns="http://www.w3.org/2000/svg">
<path d="M8.36656 1.3022C8.93793 0.798853 9.88674 0.767819 10.507 1.3022L14.2528 4.60203C14.8438 5.12273 14.8438 5.96695 14.2528 6.48765C13.6814 6.99099 12.7326 7.02795 12.1123 6.48765L11.8448 6.25182L9.61123 8.21949C10.285 9.82604 9.83391 11.8086 8.36656 13.0873C8.20817 13.2253 7.96438 13.2074 7.83146 13.0873L4.62066 10.2587L2.21282 12.3802C2.06506 12.5104 1.82548 12.5104 1.67772 12.3802C1.54132 12.26 1.51735 12.0512 1.67772 11.9088L4.08564 9.78734L0.875053 6.95905C0.738654 6.83889 0.712405 6.63093 0.875053 6.48765C2.30671 5.22642 4.48126 4.77501 6.40031 5.39082L8.63388 3.42316L8.36656 3.18781C7.75668 2.64776 7.7952 1.80554 8.36656 1.3022ZM9.97189 1.7736C9.67636 1.51325 9.1972 1.51325 8.90167 1.7736C8.6217 2.02025 8.59511 2.43834 8.90167 2.71641L9.43678 3.18781C9.57318 3.30797 9.59242 3.52173 9.43678 3.65921L6.76235 6.01541C6.65436 6.11055 6.49205 6.13917 6.35081 6.08798C4.86237 5.54847 3.06371 5.70403 1.68874 6.73316L8.0875 12.3702C9.19967 11.2366 9.43678 9.53038 8.82036 8.26366C8.74886 8.11674 8.82036 7.97319 8.90167 7.90116L11.5772 5.54485C11.7136 5.42468 11.9482 5.40457 12.1123 5.54485L12.6474 6.01624C12.943 6.27659 13.4221 6.27659 13.7176 6.01624C13.9976 5.76959 14.0276 5.35328 13.7176 5.07343L9.97189 1.7736Z" fill="#6B7280" stroke="#6B7280" stroke-width="0.5"/>
</svg>
