<svg width="14" height="14" viewBox="0 0 14 14" fill="none" xmlns="http://www.w3.org/2000/svg">
<path d="M8.03445 1.30134C8.54703 0.797998 9.39822 0.766965 9.95466 1.30134L13.315 4.60117C13.8453 5.12187 13.8453 5.96609 13.315 6.48679C12.8025 6.99013 11.9513 7.0271 11.3948 6.48679L11.1548 6.25097L9.15106 8.21864C9.75555 9.82518 9.35083 11.8078 8.03445 13.0865C7.89235 13.2245 7.67364 13.2065 7.55439 13.0865L4.67394 10.2578L2.51382 12.3793C2.38126 12.5095 2.16633 12.5095 2.03377 12.3793C1.9114 12.2592 1.8899 12.0504 2.03377 11.9079L4.19395 9.78648L1.31369 6.9582C1.19132 6.83803 1.16777 6.63008 1.31369 6.48679C2.59805 5.22557 4.54888 4.77416 6.27049 5.38997L8.27426 3.4223L8.03445 3.18696C7.48731 2.64691 7.52187 1.80468 8.03445 1.30134ZM9.47461 1.77275C9.20948 1.5124 8.77963 1.5124 8.5145 1.77275C8.26333 2.01939 8.23948 2.43749 8.5145 2.71555L8.99456 3.18696C9.11692 3.30712 9.13419 3.52087 8.99456 3.65836L6.59528 6.01456C6.4984 6.10969 6.35279 6.13831 6.22608 6.08712C4.89078 5.54762 3.27717 5.70317 2.04366 6.7323L7.78409 12.3693C8.78184 11.2357 8.99456 9.52953 8.44155 8.26281C8.37741 8.11588 8.44155 7.97233 8.5145 7.90031L10.9148 5.54399C11.0371 5.42382 11.2476 5.40371 11.3948 5.54399L11.8749 6.01539C12.14 6.27574 12.5699 6.27574 12.835 6.01539C13.0862 5.76874 13.1131 5.35242 12.835 5.07258L9.47461 1.77275Z" fill="#6B7280" stroke="#6B7280" stroke-width="0.5"/>
</svg>
