<svg width="11" height="11" viewBox="0 0 11 11" fill="none" xmlns="http://www.w3.org/2000/svg">
<path d="M5.5 1.08594C6.51148 1.08594 7.49283 1.44693 8.27861 2.09352H7.83154V2.67945H9.29639V1.21461H8.71045V1.69127C7.81084 0.927734 6.67391 0.5 5.5 0.5C2.74689 0.5 0.5 2.74705 0.5 5.5C0.5 6.26533 0.686602 7.02168 1.05461 7.74805L1.5773 7.48322C1.25125 6.83971 1.08594 6.17246 1.08594 5.5C1.08594 3.06607 3.06607 1.08594 5.5 1.08594Z" fill="#81C562"/>
<path d="M9.92826 3.21729L9.40768 3.48617C9.74402 4.13742 9.91455 4.81488 9.91455 5.49975C9.91455 7.93367 7.93441 9.91381 5.50049 9.91381C4.47354 9.91381 3.48035 9.54307 2.68973 8.87961H3.14453V8.29367H1.67969V9.75852H2.26562V9.28789C3.16855 10.0646 4.31412 10.4997 5.50049 10.4997C8.25359 10.4997 10.5005 8.2527 10.5005 5.49975C10.5005 4.72041 10.308 3.95248 9.92826 3.21729Z" fill="#81C562"/>
<path d="M2.86328 4.14697V7.43879L5.5 8.75715L8.13672 7.43879V4.14697L5.5 2.82861L2.86328 4.14697ZM7.18865 4.32805L5.5 5.17236L3.81135 4.32805L5.5 3.48373L7.18865 4.32805ZM3.44922 4.80209L5.20703 5.681V7.95559L3.44922 7.07668V4.80209ZM5.79297 7.95557V5.681L7.55078 4.80209V7.07668L5.79297 7.95557Z" fill="#81C562"/>
</svg>
