<svg viewBox="0 0 32 32" fill="none" xmlns="http://www.w3.org/2000/svg">
<g style="mix-blend-mode:difference">
<path d="M19 25.8113V18.566C19 18.566 20.4526 18.1832 21.2191 17.6604C21.9672 17.1501 22.8041 16 22.8041 16H28.0348C28.2884 17.2075 30.6765 18.2138 31.8389 18.566C31.8389 19.8239 31.8706 23.034 31.9974 25.8113C32.1242 28.5887 27.6121 31.0943 25.3402 32C20.268 29.8264 19 26.9686 19 25.8113Z" fill="#62D649"/>
</g>
<g style="mix-blend-mode:darken">
<g style="mix-blend-mode:multiply">
<rect width="28.1905" height="11.0119" rx="5" fill="url(#paint0_linear_4262_58846)"/>
</g>
<g style="mix-blend-mode:multiply">
<rect y="8" width="28" height="11" rx="5" fill="url(#paint1_linear_4262_58846)"/>
</g>
<g style="mix-blend-mode:multiply">
<rect y="16.2976" width="28.1905" height="11.0119" rx="5" fill="url(#paint2_linear_4262_58846)"/>
</g>
</g>
<defs>
<linearGradient id="paint0_linear_4262_58846" x1="-0.185464" y1="0.16194" x2="7.45975" y2="18.3368" gradientUnits="userSpaceOnUse">
<stop stop-color="#6EE9E1"/>
<stop offset="0.604167" stop-color="#6EE9E1"/>
<stop offset="1" stop-color="#6EE9E1"/>
</linearGradient>
<linearGradient id="paint1_linear_4262_58846" x1="-0.184211" y1="8.16176" x2="7.48317" y2="26.2858" gradientUnits="userSpaceOnUse">
<stop stop-color="#6EE9E1"/>
<stop offset="0.604167" stop-color="#6EE9E1"/>
<stop offset="1" stop-color="#6EE9E1"/>
</linearGradient>
<linearGradient id="paint2_linear_4262_58846" x1="-0.185464" y1="16.4595" x2="7.45975" y2="34.6344" gradientUnits="userSpaceOnUse">
<stop stop-color="#6EE9E1"/>
<stop offset="0.604167" stop-color="#6EE9E1"/>
<stop offset="1" stop-color="#6EE9E1"/>
</linearGradient>
</defs>
</svg>
