<svg width="25" height="25" viewBox="0 0 25 25" fill="none" xmlns="http://www.w3.org/2000/svg">
<path d="M0 4.23244C0 1.94537 1.89667 0.091337 4.23634 0.091337H20.7637C23.1033 0.091337 25 1.94537 25 4.23244V20.8589C25 23.146 23.1033 25 20.7637 25H4.23634C1.89667 25 0 23.146 0 20.8589V4.23244Z" fill="#CDD7FA"/>
<path d="M3.99389e-06 4.02666C3.99389e-06 1.89206 1.77023 0.161625 3.95392 0.161625H19.8609C22.0446 0.161625 23.8148 1.89206 23.8148 4.02666V20.0467C23.8148 22.1813 22.0446 23.9117 19.8609 23.9117H3.95393C1.77024 23.9117 3.99389e-06 22.1813 3.99389e-06 20.0467V4.02666Z" fill="#E8F3FC"/>
<path d="M3.99389e-06 3.86503C3.99389e-06 1.73044 1.77023 0 3.95392 0H21.0461C23.2298 0 25 1.73043 25 3.86503V7.53052H3.99389e-06V3.86503Z" fill="#253A81"/>
<path d="M3.99389e-06 3.86503C3.99389e-06 1.73044 1.77023 0 3.95392 0H19.8609C22.0446 0 23.8148 1.73043 23.8148 3.86503V7.53052H3.99389e-06V3.86503Z" fill="#354E96"/>
<path d="M5.64656 3.9013C5.64656 4.70111 4.98327 5.34948 4.16507 5.34948C3.34688 5.34948 2.68359 4.70111 2.68359 3.9013C2.68359 3.1015 3.34688 2.45312 4.16507 2.45312C4.98327 2.45312 5.64656 3.1015 5.64656 3.9013Z" fill="#D92D20"/>
<path d="M5.35026 3.75648C5.35026 4.47631 4.75331 5.05984 4.01693 5.05984C3.28055 5.05984 2.68359 4.47631 2.68359 3.75648C2.68359 3.03666 3.28055 2.45312 4.01693 2.45312C4.75331 2.45312 5.35026 3.03666 5.35026 3.75648Z" fill="#F04438"/>
<path d="M9.50202 3.9013C9.50202 4.70111 8.83874 5.34948 8.02054 5.34948C7.20234 5.34948 6.53906 4.70111 6.53906 3.9013C6.53906 3.1015 7.20234 2.45312 8.02054 2.45312C8.83874 2.45312 9.50202 3.1015 9.50202 3.9013Z" fill="#EAAA08"/>
<path d="M9.20573 3.75648C9.20573 4.47631 8.60877 5.05984 7.8724 5.05984C7.13602 5.05984 6.53906 4.47631 6.53906 3.75648C6.53906 3.03666 7.13602 2.45312 7.8724 2.45312C8.60877 2.45312 9.20573 3.03666 9.20573 3.75648Z" fill="#FAC515"/>
<path d="M13.3536 3.9013C13.3536 4.70111 12.6903 5.34948 11.8721 5.34948C11.0539 5.34948 10.3906 4.70111 10.3906 3.9013C10.3906 3.1015 11.0539 2.45312 11.8721 2.45312C12.6903 2.45312 13.3536 3.1015 13.3536 3.9013Z" fill="#099250"/>
<path d="M13.0573 3.75648C13.0573 4.47631 12.4603 5.05984 11.724 5.05984C10.9876 5.05984 10.3906 4.47631 10.3906 3.75648C10.3906 3.03666 10.9876 2.45312 11.724 2.45312C12.4603 2.45312 13.0573 3.03666 13.0573 3.75648Z" fill="#16B364"/>
<path d="M3.55069 11.752C3.85706 11.4525 4.35366 11.4525 4.66003 11.752L8.58257 15.5863C8.88894 15.8858 8.88894 16.3712 8.58257 16.6707L4.66003 20.5051C4.23612 20.8576 3.58236 20.7298 3.28922 20.2495C3.06725 19.8857 2.98285 19.4645 3.28922 19.165L6.91855 16.1285L3.55069 12.8364C3.24432 12.5369 3.24432 12.0514 3.55069 11.752Z" fill="#252B37"/>
<path d="M3.28837 11.4961C3.59474 11.1966 4.09134 11.1966 4.39771 11.4961L8.32025 15.3305C8.62662 15.6299 8.62662 16.1154 8.32025 16.4149L4.39771 20.2492C4.09134 20.5487 3.59474 20.5487 3.28837 20.2492C2.982 19.9497 2.982 19.4643 3.28837 19.1648L6.65624 15.8727L3.28837 12.5805C2.982 12.281 2.982 11.7956 3.28837 11.4961Z" fill="#535862"/>
<path d="M19.7769 18.9434C20.221 18.9434 20.581 19.3439 20.581 19.838C20.581 20.3322 20.3195 20.7327 19.7769 20.8605H10.6635C10.2194 20.8605 9.85938 20.3322 9.85938 19.838C9.85938 19.3439 10.2194 18.9434 10.6635 18.9434H19.7769Z" fill="#252B37"/>
<path d="M19.535 18.9434C19.9682 18.9434 20.3195 19.2867 20.3195 19.7102C20.3195 20.1338 19.9682 20.4771 19.535 20.4771H10.6439C10.2106 20.4771 9.85938 20.1338 9.85938 19.7102C9.85938 19.2867 10.2106 18.9434 10.6439 18.9434H19.535Z" fill="#535862"/>
</svg>
