<svg width="32" height="32" viewBox="0 0 32 32" fill="none" xmlns="http://www.w3.org/2000/svg">
<g clip-path="url(#clip0_1_3)">
<path d="M16 32C24.8366 32 32 24.8366 32 16C32 7.16344 24.8366 0 16 0C7.16344 0 0 7.16344 0 16C0 24.8366 7.16344 32 16 32Z" fill="#1890FF"/>
<path d="M23.7069 11.3602H19.0439C18.7585 11.3617 18.4852 11.4756 18.2832 11.6773C18.0812 11.8789 17.9668 12.152 17.9649 12.4374L17.9613 12.9075L17.9237 12.9079C17.5505 12.9101 17.1932 13.0598 16.9299 13.3243C16.6666 13.589 16.5185 13.9469 16.5182 14.3202C16.5177 14.6934 16.6649 15.0517 16.9276 15.3169C17.1903 15.582 17.5472 15.7326 17.9205 15.7356L17.9412 15.7359L17.9268 17.8268H16.109C16.1176 17.7107 16.1119 17.594 16.0923 17.4792C16.0407 17.1752 15.8907 16.8967 15.6654 16.6862C15.4401 16.4759 15.1519 16.3453 14.8452 16.3146C14.6502 16.2947 14.4532 16.3163 14.2671 16.3779C14.0811 16.4395 13.9102 16.5399 13.7656 16.6722C13.6195 16.8053 13.5028 16.9674 13.4229 17.1481C13.3431 17.3288 13.3018 17.5243 13.3017 17.7218C13.3017 17.7568 13.3031 17.7918 13.3057 17.8268H12.3521C12.0652 17.828 11.7905 17.9428 11.5882 18.1462C11.3859 18.3496 11.2726 18.625 11.2731 18.9119V23.6554C11.2726 23.9422 11.3859 24.2176 11.5882 24.421C11.7905 24.6245 12.0652 24.7394 12.3521 24.7405H17.9324L23.6623 24.7851H23.6709C23.9538 24.7857 24.2254 24.6741 24.4262 24.4748C24.5282 24.3746 24.6094 24.2552 24.665 24.1234C24.7205 23.9915 24.7493 23.85 24.7497 23.707L24.7846 18.2738H24.786V12.4453C24.7864 12.1583 24.6731 11.883 24.4708 11.6795C24.2685 11.4761 23.9937 11.3612 23.7069 11.3602ZM17.8774 24.3119H12.3524C12.1792 24.3109 12.0134 24.2412 11.8914 24.1182C11.7695 23.995 11.7013 23.8286 11.7019 23.6554V18.912C11.7013 18.7387 11.7695 18.5723 11.8914 18.4492C12.0134 18.3262 12.1792 18.2565 12.3524 18.2555H13.452C13.4958 18.2555 13.539 18.246 13.5786 18.2274C13.6182 18.2089 13.6532 18.1819 13.6812 18.1483C13.7098 18.1142 13.7304 18.0742 13.7418 18.0312C13.7531 17.9881 13.7547 17.9432 13.7467 17.8994C13.7166 17.7341 13.729 17.5639 13.7828 17.4047C13.8365 17.2456 13.9299 17.1027 14.0541 16.9895C14.1546 16.8976 14.2734 16.828 14.4027 16.7851C14.532 16.7424 14.6689 16.7274 14.8045 16.7413C15.0175 16.7627 15.2177 16.8537 15.3741 17C15.5304 17.1464 15.6344 17.34 15.6701 17.5512C15.6899 17.6662 15.6894 17.7838 15.6687 17.8987C15.6607 17.9425 15.6624 17.9875 15.6737 18.0306C15.685 18.0736 15.7057 18.1136 15.7342 18.1478C15.7624 18.1815 15.7975 18.2086 15.8372 18.2273C15.877 18.2459 15.9204 18.2555 15.9643 18.2554H17.924L17.9116 19.8733C17.5448 19.8434 17.181 19.9586 16.8984 20.1942C16.6157 20.4299 16.4368 20.7671 16.4002 21.1333C16.3797 21.3304 16.4006 21.5295 16.4615 21.7182C16.5223 21.9067 16.6218 22.0806 16.7536 22.2286C16.8839 22.3741 17.0431 22.4909 17.221 22.5714C17.399 22.652 17.5918 22.6946 17.7871 22.6965C17.8212 22.6967 17.8557 22.6957 17.89 22.6934L17.8774 24.3119ZM24.3211 23.7042C24.321 23.7909 24.3035 23.8767 24.2699 23.9566C24.2363 24.0365 24.1871 24.109 24.1252 24.1697C24.0045 24.2896 23.8411 24.3568 23.6708 24.3566H23.6657L18.306 24.3148L18.3195 22.5509C18.3198 22.5067 18.3104 22.4631 18.2919 22.423C18.2734 22.3829 18.2463 22.3474 18.2126 22.319C18.1788 22.2906 18.1393 22.2699 18.0966 22.2585C18.0539 22.2472 18.0094 22.2453 17.9659 22.2532C17.908 22.2635 17.8492 22.2684 17.7903 22.2678C17.6535 22.2669 17.5182 22.2375 17.3934 22.1815C17.2685 22.1254 17.1567 22.044 17.0651 21.9423C16.9734 21.8407 16.9039 21.7211 16.8611 21.5911C16.8182 21.461 16.803 21.3236 16.8161 21.1874C16.8294 21.0511 16.8708 20.9192 16.938 20.7998C17.005 20.6805 17.0962 20.5765 17.2057 20.4944C17.3152 20.4123 17.4406 20.3538 17.5739 20.3229C17.7073 20.292 17.8456 20.2891 17.98 20.3145C18.0235 20.323 18.0682 20.3218 18.1111 20.311C18.154 20.3003 18.194 20.2802 18.2283 20.2521C18.2625 20.2242 18.2901 20.189 18.3092 20.149C18.3284 20.1092 18.3384 20.0656 18.3388 20.0213L18.3524 18.2572L20.1662 18.2718C20.1575 18.3886 20.163 18.506 20.1828 18.6214C20.2344 18.9253 20.3843 19.204 20.6097 19.4143C20.835 19.6248 21.1231 19.7553 21.4299 19.786C21.4768 19.7905 21.5234 19.7928 21.5698 19.7928C21.9176 19.7935 22.2531 19.6635 22.5095 19.4284C22.6555 19.2954 22.7723 19.1333 22.8521 18.9525C22.932 18.7718 22.9732 18.5765 22.9733 18.3788C22.9733 18.3439 22.972 18.3089 22.9694 18.2739H24.3559L24.3211 23.7042ZM24.3574 17.8453H22.8233C22.7796 17.8452 22.7364 17.8547 22.6968 17.8732C22.6571 17.8917 22.6221 17.9188 22.5941 17.9524C22.5656 17.9865 22.545 18.0264 22.5337 18.0694C22.5224 18.1124 22.5208 18.1573 22.5288 18.2011C22.5589 18.3663 22.5465 18.5365 22.4927 18.6958C22.4389 18.8549 22.3456 18.9978 22.2214 19.111C22.1209 19.203 22.0021 19.2726 21.8728 19.3154C21.7435 19.3582 21.6065 19.3731 21.4711 19.3592C21.258 19.3377 21.0579 19.2468 20.9015 19.1005C20.7451 18.9542 20.6411 18.7606 20.6054 18.5494C20.5855 18.4341 20.586 18.3163 20.6068 18.2011C20.6149 18.1576 20.6132 18.1127 20.6021 18.0699C20.5909 18.027 20.5705 17.987 20.5422 17.9529C20.5144 17.9192 20.4795 17.892 20.44 17.8733C20.4004 17.8546 20.3573 17.8446 20.3136 17.8444L18.3554 17.8286L18.3711 15.5265C18.3711 15.5227 18.3708 15.5189 18.3707 15.515C18.3707 15.5119 18.3707 15.5087 18.3702 15.5056C18.3698 15.5016 18.3691 15.4978 18.3686 15.4939C18.3681 15.4907 18.3678 15.4875 18.3672 15.4843C18.3665 15.4805 18.3654 15.4768 18.3645 15.4731C18.3636 15.4695 18.363 15.4667 18.3622 15.4637C18.3611 15.4601 18.3597 15.4565 18.3586 15.453C18.3575 15.4494 18.3566 15.4469 18.3553 15.4438C18.354 15.4408 18.3523 15.4373 18.3508 15.4339C18.3492 15.4306 18.348 15.4279 18.3465 15.425C18.345 15.422 18.3429 15.4189 18.3411 15.4158C18.3393 15.4127 18.3378 15.41 18.3359 15.4072C18.3341 15.4044 18.332 15.4016 18.3298 15.3988C18.3278 15.396 18.3259 15.3932 18.3238 15.3905C18.3217 15.3878 18.3194 15.3855 18.3172 15.383C18.315 15.3805 18.3125 15.3777 18.31 15.3752C18.3075 15.3726 18.3053 15.3707 18.3028 15.3685C18.3005 15.3663 18.2977 15.3635 18.2948 15.3611C18.2921 15.3588 18.2899 15.3573 18.2875 15.3554C18.285 15.3535 18.2816 15.3508 18.2785 15.3486C18.2754 15.3464 18.2732 15.3453 18.2706 15.3436C18.2673 15.3416 18.2643 15.3396 18.261 15.3377C18.2577 15.3358 18.2553 15.3349 18.2524 15.3334C18.2496 15.332 18.2458 15.3299 18.2424 15.3285C18.2388 15.3271 18.2363 15.3262 18.2332 15.3249C18.2302 15.3237 18.2263 15.3221 18.2228 15.321C18.2192 15.3198 18.2164 15.3192 18.2131 15.3184C18.2098 15.3175 18.2059 15.3163 18.2024 15.3155C18.1988 15.3147 18.1956 15.3144 18.1922 15.3138C18.1889 15.3132 18.1851 15.3125 18.1812 15.312C18.1772 15.3116 18.174 15.3115 18.1704 15.3113C18.1668 15.3111 18.1636 15.3107 18.1601 15.3106L17.9237 15.307C17.6638 15.3046 17.4155 15.1995 17.2327 15.0148C17.0499 14.83 16.9475 14.5805 16.9478 14.3206C16.9481 14.0607 17.0511 13.8115 17.2343 13.6271C17.4175 13.4428 17.6661 13.3384 17.926 13.3365L18.1763 13.3338C18.1793 13.3338 18.1822 13.3334 18.1851 13.3333C18.1891 13.333 18.1931 13.333 18.197 13.3325C18.2004 13.3322 18.2036 13.3315 18.2069 13.331C18.2102 13.3305 18.2145 13.3299 18.2182 13.3292C18.2219 13.3285 18.2249 13.3275 18.2283 13.3266C18.2317 13.3257 18.2352 13.3249 18.2385 13.3238C18.2419 13.3227 18.2454 13.3214 18.2488 13.3202C18.2523 13.3192 18.2551 13.318 18.2581 13.3167C18.2611 13.3154 18.2648 13.3135 18.2683 13.3118C18.2711 13.3105 18.274 13.3092 18.2767 13.3077C18.2801 13.3058 18.2833 13.3038 18.2865 13.3018C18.2891 13.3002 18.2917 13.2987 18.2942 13.2969C18.2974 13.2948 18.3004 13.2924 18.3035 13.2901C18.3058 13.2882 18.3083 13.2865 18.3106 13.2846C18.3135 13.2822 18.3162 13.2796 18.319 13.277C18.3212 13.275 18.3236 13.2729 18.3258 13.2707C18.3279 13.2686 18.3308 13.2653 18.3332 13.2626C18.3356 13.2599 18.3375 13.2579 18.3396 13.2555C18.3416 13.253 18.3439 13.2498 18.346 13.2469C18.3482 13.244 18.35 13.2417 18.3518 13.2389C18.3537 13.2362 18.3554 13.2329 18.3574 13.2299C18.3594 13.2269 18.361 13.2242 18.3625 13.2213C18.364 13.2184 18.3656 13.215 18.3672 13.2118C18.3687 13.2086 18.3701 13.2057 18.3714 13.2026C18.3728 13.1995 18.374 13.196 18.375 13.1926C18.3761 13.1893 18.3774 13.1862 18.3786 13.183C18.3798 13.1797 18.3805 13.1758 18.3814 13.1723C18.3823 13.1687 18.3832 13.1657 18.3838 13.1624C18.3844 13.159 18.3851 13.155 18.3856 13.1514C18.3862 13.1477 18.3867 13.1446 18.387 13.1412C18.3874 13.1377 18.3875 13.1336 18.3876 13.1299C18.3876 13.127 18.3882 13.1242 18.3882 13.1212L18.3931 12.4404C18.394 12.268 18.4628 12.103 18.5846 11.981C18.7064 11.859 18.8713 11.7899 19.0436 11.7886H23.7069C23.8801 11.7896 24.046 11.8594 24.1679 11.9825C24.2899 12.1056 24.358 12.2721 24.3574 12.4453V17.8453Z" fill="white" stroke="white" stroke-width="0.2"/>
<path d="M23.282 16.0446C23.2251 16.0446 23.1707 16.0672 23.1304 16.1074C23.0903 16.1476 23.0677 16.2021 23.0677 16.2589V16.7038C23.0677 16.7607 23.0903 16.8152 23.1304 16.8554C23.1707 16.8955 23.2251 16.9182 23.282 16.9182C23.3388 16.9182 23.3933 16.8955 23.4335 16.8554C23.4737 16.8152 23.4963 16.7607 23.4963 16.7038V16.2589C23.4963 16.2021 23.4737 16.1476 23.4335 16.1074C23.3933 16.0672 23.3388 16.0446 23.282 16.0446Z" fill="white" stroke="white" stroke-width="0.2"/>
<path d="M23.282 12.6398C23.2251 12.6398 23.1707 12.6625 23.1304 12.7026C23.0903 12.7429 23.0677 12.7973 23.0677 12.8542V15.1839C23.0677 15.2408 23.0903 15.2952 23.1304 15.3355C23.1707 15.3756 23.2251 15.3982 23.282 15.3982C23.3388 15.3982 23.3933 15.3756 23.4335 15.3355C23.4737 15.2952 23.4963 15.2408 23.4963 15.1839V12.8542C23.4963 12.7973 23.4737 12.7429 23.4335 12.7026C23.3933 12.6625 23.3388 12.6398 23.282 12.6398Z" fill="white" stroke="white" stroke-width="0.2"/>
<path d="M23.3638 23.6771C23.4206 23.6771 23.4752 23.6545 23.5153 23.6143C23.5556 23.5741 23.5781 23.5196 23.5781 23.4628V23.0178C23.5781 22.961 23.5556 22.9065 23.5153 22.8664C23.4752 22.8261 23.4206 22.8036 23.3638 22.8036C23.307 22.8036 23.2525 22.8261 23.2123 22.8664C23.1721 22.9065 23.1496 22.961 23.1496 23.0178V23.4628C23.1496 23.5196 23.1721 23.5741 23.2123 23.6143C23.2525 23.6545 23.307 23.6771 23.3638 23.6771Z" fill="white" stroke="white" stroke-width="0.2"/>
<path d="M23.3638 22.1585C23.4206 22.1585 23.4752 22.1359 23.5153 22.0957C23.5556 22.0555 23.5781 22.001 23.5781 21.9442V19.6145C23.5781 19.5577 23.5556 19.5032 23.5153 19.4631C23.4752 19.4229 23.4206 19.4003 23.3638 19.4003C23.307 19.4003 23.2525 19.4229 23.2123 19.4631C23.1721 19.5032 23.1496 19.5577 23.1496 19.6145V21.9442C23.1496 22.001 23.1721 22.0555 23.2123 22.0957C23.2525 22.1359 23.307 22.1585 23.3638 22.1585Z" fill="white" stroke="white" stroke-width="0.2"/>
<path d="M12.4579 16.1013C12.6423 16.1016 12.8237 16.0546 12.9848 15.9647C13.1458 15.875 13.2811 15.7454 13.3779 15.5884L13.892 14.7536C13.9143 14.7176 13.9287 14.6773 13.9343 14.6353C13.9399 14.5933 13.9366 14.5506 13.9246 14.51C13.9126 14.4694 13.8922 14.4318 13.8646 14.3996C13.8371 14.3675 13.8031 14.3414 13.7648 14.3233C13.5282 14.2121 13.3452 14.0118 13.2558 13.7662C13.1665 13.5205 13.1781 13.2494 13.2879 13.0123C13.3978 12.7751 13.5971 12.591 13.8423 12.5003C14.0875 12.4097 14.3586 12.4197 14.5963 12.5284C14.6656 12.5611 14.7307 12.6018 14.7907 12.6494C14.824 12.676 14.8625 12.6953 14.9038 12.7059C14.9451 12.7166 14.9881 12.7183 15.0301 12.7111C15.0721 12.7038 15.1121 12.6878 15.1473 12.6639C15.1827 12.6401 15.2126 12.609 15.235 12.5727L15.8604 11.557C16.0117 11.3113 16.0593 11.0155 15.9928 10.7347C15.9261 10.4539 15.7507 10.211 15.5051 10.0595L14.5137 9.45097C14.7276 9.15093 14.8164 8.77943 14.7612 8.41508C14.7061 8.05074 14.5112 7.72213 14.2181 7.49889C14.0619 7.3793 13.8822 7.29425 13.6907 7.24939C13.4993 7.20452 13.3005 7.20087 13.1076 7.23868C12.9144 7.27613 12.7312 7.35363 12.5698 7.4662C12.4085 7.57877 12.2724 7.72388 12.1705 7.89227C12.1528 7.9216 12.1361 7.95162 12.1205 7.98232L11.3073 7.48321C11.1863 7.40896 11.0517 7.35941 10.9115 7.33743C10.7711 7.31544 10.6279 7.32145 10.4899 7.35512C10.352 7.38878 10.222 7.44943 10.1077 7.53357C9.99322 7.61771 9.89668 7.72366 9.82339 7.84533L7.3719 11.8955C7.22355 12.1413 7.17811 12.4357 7.24544 12.7147C7.31278 12.9937 7.48746 13.2349 7.73158 13.386L8.43436 13.8173C8.46834 13.8382 8.50643 13.8517 8.54598 13.8568C8.5856 13.8621 8.62582 13.859 8.66407 13.8478C8.7024 13.8365 8.7379 13.8174 8.76838 13.7915C8.79885 13.7657 8.82354 13.7338 8.84083 13.6978C8.89371 13.5884 8.96883 13.4912 9.06156 13.4126C9.15428 13.3339 9.2624 13.2757 9.37904 13.2414C9.49569 13.2071 9.61821 13.1977 9.73866 13.2137C9.8592 13.2297 9.97493 13.2709 10.0785 13.3343C10.1822 13.3979 10.2714 13.4824 10.3403 13.5826C10.4092 13.6827 10.4565 13.7961 10.4788 13.9156C10.5012 14.035 10.4983 14.1579 10.4702 14.2762C10.4423 14.3944 10.3898 14.5055 10.3162 14.6023C10.2918 14.6341 10.2744 14.6706 10.2651 14.7094C10.2558 14.7483 10.2547 14.7887 10.262 14.828C10.2693 14.8674 10.2847 14.9047 10.3073 14.9377C10.33 14.9707 10.3592 14.9986 10.3934 15.0194L11.8984 15.9431C12.0666 16.0467 12.2603 16.1015 12.4579 16.1013ZM10.9195 13.9915C10.9017 13.7189 10.7983 13.4587 10.6241 13.2482C10.4497 13.0377 10.2135 12.8875 9.94887 12.8191C9.68426 12.7508 9.40487 12.7676 9.1504 12.8673C8.89592 12.9669 8.67939 13.1444 8.53165 13.3743L7.95573 13.0207C7.80792 12.9291 7.70217 12.7829 7.66148 12.6138C7.62087 12.4446 7.64853 12.2664 7.73851 12.1176L10.1899 8.0672C10.2338 7.9939 10.292 7.93006 10.3608 7.87931C10.4296 7.82857 10.5077 7.792 10.5908 7.77166C10.6738 7.75131 10.7601 7.74758 10.8446 7.76076C10.9291 7.77394 11.0101 7.80381 11.083 7.84846L12.0222 8.42476C12.0596 8.44777 12.1016 8.46232 12.1453 8.4672C12.1889 8.47207 12.2331 8.4672 12.2747 8.45303C12.3167 8.4387 12.355 8.41524 12.387 8.38438C12.4189 8.35352 12.4437 8.31596 12.4593 8.27444C12.5185 8.1184 12.6166 7.98004 12.7443 7.87246C12.8719 7.76487 13.0248 7.69166 13.1887 7.65966C13.3228 7.63352 13.4609 7.63611 13.5939 7.66743C13.7269 7.69867 13.8517 7.75787 13.9601 7.84107C14.0683 7.92381 14.1583 8.02788 14.2244 8.14697C14.2905 8.26606 14.3313 8.39748 14.3444 8.53303C14.3574 8.66857 14.3423 8.80541 14.3 8.93486C14.2577 9.0643 14.1893 9.18369 14.0987 9.28548C14.0697 9.31809 14.0481 9.35672 14.0357 9.39863C14.0232 9.44053 14.0201 9.48472 14.0265 9.52792C14.033 9.57166 14.0489 9.61341 14.0732 9.65028C14.0976 9.68716 14.1297 9.71825 14.1675 9.74133L15.2811 10.4248C15.4298 10.5168 15.5359 10.6641 15.5761 10.8342C15.6164 11.0043 15.5874 11.1835 15.4957 11.3323L14.9421 12.2312C14.8901 12.1977 14.8361 12.1677 14.7803 12.1412C14.4898 12.005 14.1616 11.972 13.8499 12.0476C13.5382 12.1233 13.2616 12.3031 13.066 12.5573C12.9445 12.7154 12.8574 12.8971 12.8105 13.0908C12.7637 13.2846 12.758 13.486 12.7939 13.6821C12.8298 13.8782 12.9064 14.0645 13.0188 14.2292C13.1313 14.3938 13.277 14.5329 13.4466 14.6376C13.4498 14.6396 13.453 14.6416 13.4562 14.6435L13.0129 15.3634C12.923 15.5096 12.7789 15.6142 12.612 15.6544C12.4452 15.6946 12.2692 15.667 12.1226 15.5777L10.7442 14.7319C10.8751 14.508 10.9361 14.2503 10.9195 13.9915Z" fill="white" stroke="white" stroke-width="0.2"/>
</g>
<defs>
<clipPath id="clip0_1_3">
<rect width="32" height="32" fill="white"/>
</clipPath>
</defs>
</svg>
