<svg width="16" height="16" viewBox="0 0 16 16" fill="none" xmlns="http://www.w3.org/2000/svg">
<g clip-path="url(#clip0_20563_22599)">
<path d="M9.00016 15.9999H7.00016C6.5335 15.9999 6.00016 15.5999 6.00016 14.7999V13.3999C6.00016 12.7333 5.66683 12.1333 5.1335 11.6666C3.9335 10.7333 3.3335 9.39992 3.3335 7.93325C3.40016 5.39992 5.46683 3.39992 7.9335 3.33325C9.20016 3.33325 10.4002 3.79992 11.2668 4.66659C12.1335 5.53325 12.6668 6.73325 12.6668 7.99992C12.6668 9.39992 12.0668 10.7333 10.9335 11.5999C10.3335 12.0666 10.0002 12.7999 10.0002 13.4666V14.9999C10.0002 15.5333 9.5335 15.9999 9.00016 15.9999ZM8.00016 3.99992C5.86683 3.99992 4.06683 5.79992 4.00016 7.93325C4.00016 9.19992 4.5335 10.3999 5.5335 11.1333C6.26683 11.7333 6.66683 12.5333 6.66683 13.3999V14.7999C6.66683 14.9333 6.66683 15.3333 7.00016 15.3333H9.00016C9.20016 15.3333 9.3335 15.1999 9.3335 14.9999V13.4666C9.3335 12.5999 9.80016 11.6666 10.5335 11.0666C11.4668 10.3333 12.0002 9.19992 12.0002 7.99992C12.0002 6.93325 11.6002 5.93325 10.8002 5.13325C10.0668 4.39992 9.06683 3.99992 8.00016 3.99992Z" fill="currentColor" stroke="currentColor" stroke-width="0.2"/>
<path d="M9.66667 14H6.33333C6.13333 14 6 13.8667 6 13.6667C6 13.4667 6.13333 13.3333 6.33333 13.3333H9.66667C9.86667 13.3333 10 13.4667 10 13.6667C10 13.8667 9.86667 14 9.66667 14ZM8 2C7.8 2 7.66667 1.86667 7.66667 1.66667V0.333333C7.66667 0.133333 7.8 0 8 0C8.2 0 8.33333 0.133333 8.33333 0.333333V1.66667C8.33333 1.86667 8.2 2 8 2ZM12.4667 3.86667C12.4 3.86667 12.2667 3.86667 12.2 3.8C12.0667 3.66667 12.0667 3.46667 12.2 3.33333L13.1333 2.4C13.2667 2.26667 13.4667 2.26667 13.6 2.4C13.7333 2.53333 13.7333 2.73333 13.6 2.86667L12.6667 3.8C12.6667 3.8 12.5333 3.86667 12.4667 3.86667ZM15.6667 8.33333H14.3333C14.1333 8.33333 14 8.2 14 8C14 7.8 14.1333 7.66667 14.3333 7.66667H15.6667C15.8667 7.66667 16 7.8 16 8C16 8.2 15.8667 8.33333 15.6667 8.33333ZM13.4 13.7333C13.3333 13.7333 13.2 13.7333 13.1333 13.6667L12.2 12.7333C12.0667 12.6 12.0667 12.4 12.2 12.2667C12.3333 12.1333 12.5333 12.1333 12.6667 12.2667L13.6 13.2C13.7333 13.3333 13.7333 13.5333 13.6 13.6667C13.6 13.7333 13.5333 13.7333 13.4 13.7333ZM2.6 13.7333C2.53333 13.7333 2.4 13.7333 2.33333 13.6667C2.2 13.5333 2.2 13.3333 2.33333 13.2L3.26667 12.2667C3.4 12.1333 3.6 12.1333 3.73333 12.2667C3.86667 12.4 3.86667 12.6 3.73333 12.7333L2.8 13.6667C2.73333 13.7333 2.66667 13.7333 2.6 13.7333ZM1.66667 8.33333H0.333333C0.133333 8.33333 0 8.2 0 8C0 7.8 0.133333 7.66667 0.333333 7.66667H1.66667C1.86667 7.66667 2 7.8 2 8C2 8.2 1.86667 8.33333 1.66667 8.33333ZM3.53333 3.86667C3.46667 3.86667 3.33333 3.86667 3.26667 3.8L2.33333 2.8C2.2 2.66667 2.2 2.46667 2.33333 2.33333C2.46667 2.2 2.66667 2.2 2.8 2.33333L3.73333 3.26667C3.86667 3.4 3.86667 3.6 3.73333 3.73333C3.66667 3.8 3.6 3.86667 3.53333 3.86667ZM10.6667 8.33333C10.4667 8.33333 10.3333 8.2 10.3333 8C10.3333 6.73333 9.26667 5.66667 8 5.66667C7.8 5.66667 7.66667 5.53333 7.66667 5.33333C7.66667 5.13333 7.8 5 8 5C9.66667 5 11 6.33333 11 8C11 8.2 10.8667 8.33333 10.6667 8.33333Z" fill="currentColor" stroke="currentColor" stroke-width="0.2"/>
</g>
<defs>
<clipPath id="clip0_20563_22599">
<rect width="16" height="16" fill="white"/>
</clipPath>
</defs>
</svg>
