<svg viewBox="0 0 15 15" fill="none" xmlns="http://www.w3.org/2000/svg">
<g clip-path="url(#clip0_20563_22595)">
<path d="M14.7609 11.5834L9.0275 1.65289C8.70869 1.1007 8.13767 0.770996 7.49999 0.770996C6.86235 0.770996 6.29129 1.1007 5.97249 1.65289L0.239128 11.5834C-0.0797093 12.1356 -0.0797093 12.795 0.239128 13.3472C0.557965 13.8994 1.12896 14.2291 1.76663 14.2291H13.2333C13.871 14.2291 14.442 13.8994 14.7609 13.3472C15.0797 12.795 15.0797 12.1356 14.7609 11.5834ZM13.9998 12.9078C13.8398 13.1849 13.5533 13.3503 13.2333 13.3503H1.76663C1.44665 13.3503 1.16013 13.1849 1.00017 12.9078C0.840211 12.6307 0.840211 12.2999 1.00017 12.0228L6.73359 2.09231C6.89355 1.81522 7.18007 1.64981 7.50002 1.64981C7.81994 1.64981 8.10649 1.81522 8.26645 2.09231L13.9998 12.0228C14.1598 12.2999 14.1598 12.6307 13.9998 12.9078Z" fill="currentColor"/>
<path d="M7.06052 5.15649H7.93931V9.5505H7.06052V5.15649ZM7.49994 10.4293C7.17688 10.4293 6.91406 10.6922 6.91406 11.0152C6.91406 11.3383 7.17688 11.6011 7.49994 11.6011C7.82297 11.6011 8.08582 11.3383 8.08582 11.0152C8.08582 10.6922 7.823 10.4293 7.49994 10.4293Z" fill="currentColor"/>
</g>
<defs>
<clipPath id="clip0_20563_22595">
<rect width="15" height="15" fill="white"/>
</clipPath>
</defs>
</svg>
