<svg width="20" height="20" viewBox="0 0 20 20" fill="none" xmlns="http://www.w3.org/2000/svg">
<path fill-rule="evenodd" clip-rule="evenodd" d="M13.3936 3.2099C12.5034 3.34478 11.7804 3.77991 11.5303 4.02996L10.5607 4.99964L15 9.43901L15.9697 8.46931C16.2197 8.21921 16.6548 7.4962 16.7897 6.60602C16.9186 5.75512 16.7652 4.8255 15.9697 4.02997C15.1741 3.23443 14.2445 3.08098 13.3936 3.2099ZM13.1689 1.72683C14.3805 1.54325 15.8259 1.76483 17.0303 2.96931C18.2348 4.17378 18.4564 5.61913 18.2728 6.83073C18.0952 8.00301 17.5303 9.03001 17.0303 9.52991L15.5303 11.03C15.2374 11.3229 14.7626 11.3229 14.4697 11.03L8.9697 5.52997C8.829 5.38932 8.75 5.19855 8.75 4.99964C8.75 4.80073 8.829 4.60996 8.9697 4.46931L10.4697 2.96932C10.4697 2.96932 10.4697 2.96933 10.4697 2.96932C10.9696 2.46933 11.9966 1.90444 13.1689 1.72683Z" fill="#37352F"/>
<path fill-rule="evenodd" clip-rule="evenodd" d="M19.5303 0.469668C19.8232 0.762558 19.8232 1.23744 19.5303 1.53033L17.0303 4.03033C16.7374 4.32322 16.2626 4.32322 15.9697 4.03033C15.6768 3.73744 15.6768 3.26256 15.9697 2.96967L18.4697 0.469668C18.7626 0.176777 19.2374 0.176777 19.5303 0.469668Z" fill="#37352F"/>
<path fill-rule="evenodd" clip-rule="evenodd" d="M4.99767 8.75C5.19658 8.75 5.38735 8.829 5.528 8.9697L11.0279 14.4697C11.3208 14.7626 11.3208 15.2374 11.0279 15.5303L9.52805 17.0303C9.02805 17.5303 8.00105 18.0952 6.82877 18.2728C5.61717 18.4564 4.17181 18.2348 2.96734 17.0303L4.99767 8.75ZM2.96734 17.0303C1.76287 15.8259 1.54131 14.3805 1.72488 13.1689C1.9025 11.9966 2.46738 10.9697 2.96732 10.4697L4.46734 8.9697C4.60799 8.829 4.79876 8.75 4.99767 8.75L2.96734 17.0303ZM4.99767 10.5607L4.02802 11.5303C4.02801 11.5303 4.02802 11.5303 4.02802 11.5303C3.77796 11.7804 3.34283 12.5034 3.20795 13.3936C3.07903 14.2445 3.23247 15.1741 4.028 15.9697C4.82353 16.7652 5.75317 16.9187 6.60406 16.7898C7.49427 16.6549 8.21725 16.2197 8.46735 15.9697L9.43705 15L4.99767 10.5607Z" fill="#37352F"/>
<path fill-rule="evenodd" clip-rule="evenodd" d="M12.0303 11.4697C12.3232 11.7626 12.3232 12.2374 12.0303 12.5303L10.0303 14.5303C9.73738 14.8232 9.26258 14.8232 8.96968 14.5303C8.67678 14.2374 8.67678 13.7626 8.96968 13.4697L10.9697 11.4697C11.2626 11.1768 11.7374 11.1768 12.0303 11.4697Z" fill="#37352F"/>
<path fill-rule="evenodd" clip-rule="evenodd" d="M4.03033 15.9697C4.32322 16.2626 4.32322 16.7374 4.03033 17.0303L1.53033 19.5303C1.23744 19.8232 0.762558 19.8232 0.469668 19.5303C0.176777 19.2374 0.176777 18.7626 0.469668 18.4697L2.96967 15.9697C3.26256 15.6768 3.73744 15.6768 4.03033 15.9697Z" fill="#37352F"/>
<path fill-rule="evenodd" clip-rule="evenodd" d="M8.5303 7.96967C8.8232 8.2626 8.8232 8.7374 8.5303 9.0303L6.53033 11.0303C6.23744 11.3232 5.76256 11.3232 5.46967 11.0303C5.17678 10.7374 5.17678 10.2626 5.46967 9.9697L7.46967 7.96967C7.76256 7.67678 8.2374 7.67678 8.5303 7.96967Z" fill="#37352F"/>
</svg>
