<svg width="24" height="24" viewBox="0 0 24 24" fill="none" xmlns="http://www.w3.org/2000/svg">
<path d="M15.0381 11.0806C16.4096 11.0806 17.5253 9.96478 17.5253 8.59327V2.48723C17.5253 1.11577 16.4096 0 15.0381 0C13.6666 0 12.5508 1.11577 12.5508 2.48723V8.59331C12.5508 9.96478 13.6666 11.0806 15.0381 11.0806ZM13.9571 2.48723C13.9571 1.89117 14.442 1.40625 15.0382 1.40625C15.6342 1.40625 16.1191 1.89117 16.1191 2.48723V8.59331C16.1191 9.18942 15.6342 9.67439 15.0382 9.67439C14.442 9.67439 13.9571 9.18942 13.9571 8.59331V2.48723Z" fill="#37352F"/>
<path d="M19.7305 11.08H21.5147C22.8861 11.08 24.0019 9.96422 24.0019 8.5927C24.0019 7.22123 22.8861 6.10547 21.5147 6.10547C20.1432 6.10547 19.0273 7.22123 19.0273 8.5927V10.3769C19.0273 10.7652 19.3422 11.08 19.7305 11.08ZM20.4336 8.5927C20.4336 7.99664 20.9186 7.51172 21.5147 7.51172C22.1107 7.51172 22.5957 7.99664 22.5957 8.5927C22.5957 9.18881 22.1107 9.67378 21.5147 9.67378H20.4336V8.5927Z" fill="#37352F"/>
<path d="M2.48723 11.449H8.59326C9.96473 11.449 11.0805 10.3332 11.0805 8.96168C11.0805 7.59025 9.96473 6.47449 8.59326 6.47449H2.48723C1.11577 6.47453 0 7.5903 0 8.96172C0 10.3332 1.11577 11.449 2.48723 11.449ZM2.48723 7.88078H8.59326C9.18933 7.88078 9.67425 8.36571 9.67425 8.96172C9.67425 9.55783 9.18933 10.0428 8.59326 10.0428H2.48723C1.89117 10.0428 1.40625 9.55778 1.40625 8.96172C1.40625 8.36571 1.89117 7.88078 2.48723 7.88078Z" fill="#37352F"/>
<path d="M8.5927 4.97447H10.3768C10.7651 4.97447 11.0799 4.65966 11.0799 4.27134V2.48723C11.0799 1.11577 9.96417 0 8.5927 0C7.22123 0 6.10547 1.11577 6.10547 2.48723C6.10547 3.8587 7.22123 4.97447 8.5927 4.97447ZM8.5927 1.40625C9.18877 1.40625 9.67369 1.89117 9.67369 2.48723V3.56827H8.5927C7.99664 3.56827 7.51172 3.0833 7.51172 2.48723C7.51172 1.89117 7.99664 1.40625 8.5927 1.40625Z" fill="#37352F"/>
<path d="M8.95989 12.9199C7.58842 12.9199 6.47266 14.0357 6.47266 15.4072V21.5132C6.47266 22.8847 7.58842 24.0006 8.95989 24.0006C10.3315 24.0006 11.4473 22.8847 11.4473 21.5132V15.4072C11.4473 14.0357 10.3314 12.9199 8.95989 12.9199ZM10.041 21.5132C10.041 22.1093 9.556 22.5943 8.95989 22.5943C8.36383 22.5943 7.87891 22.1093 7.87891 21.5132V15.4072C7.87891 14.8111 8.36383 14.3262 8.95989 14.3262C9.55605 14.3262 10.041 14.8111 10.041 15.4072V21.5132Z" fill="#37352F"/>
<path d="M4.27139 12.9199H2.48723C1.11577 12.9199 0 14.0357 0 15.4072C0 16.7787 1.11577 17.8945 2.48723 17.8945C3.85875 17.8945 4.97456 16.7787 4.97456 15.4072V13.623C4.97452 13.2347 4.6597 12.9199 4.27139 12.9199ZM3.56827 15.4072C3.56827 16.0033 3.0833 16.4882 2.48719 16.4882C1.89117 16.4882 1.40625 16.0033 1.40625 15.4072C1.40625 14.8111 1.89117 14.3262 2.48723 14.3262H3.56831V15.4072H3.56827Z" fill="#37352F"/>
<path d="M21.5112 12.5508H15.4052C14.0337 12.5508 12.918 13.6666 12.918 15.0381C12.918 16.4095 14.0337 17.5253 15.4052 17.5253H21.5112C22.8827 17.5253 23.9985 16.4095 23.9985 15.0381C23.9984 13.6666 22.8827 12.5508 21.5112 12.5508ZM21.5112 16.119H15.4052C14.8091 16.119 14.3242 15.6341 14.3242 15.0381C14.3242 14.442 14.8091 13.957 15.4052 13.957H21.5112C22.1073 13.957 22.5922 14.442 22.5922 15.0381C22.5922 15.6341 22.1072 16.119 21.5112 16.119Z" fill="#37352F"/>
<path d="M15.4052 19.0254H13.6211C13.2328 19.0254 12.918 19.3402 12.918 19.7285V21.5127C12.918 22.8842 14.0337 24 15.4052 24C16.7767 24 17.8925 22.8842 17.8925 21.5127C17.8925 20.1412 16.7767 19.0254 15.4052 19.0254ZM15.4052 22.5937C14.8091 22.5937 14.3242 22.1087 14.3242 21.5126V20.4316H15.4052C16.0013 20.4316 16.4863 20.9166 16.4863 21.5126C16.4862 22.1087 16.0013 22.5937 15.4052 22.5937Z" fill="#37352F"/>
</svg>
