<svg width="15" height="16" viewBox="0 0 15 16" fill="none" xmlns="http://www.w3.org/2000/svg">
<path d="M10.1132 3.12402H2.20508C1.46304 3.12402 0.860352 3.65546 0.860352 4.30977V14.3149C0.860352 14.9692 1.46304 15.5006 2.20508 15.5006H10.1132C10.8552 15.5006 11.4579 14.9692 11.4579 14.3149V4.30977C11.4544 3.65546 10.8517 3.12402 10.1132 3.12402ZM10.5138 14.3118C10.5138 14.5084 10.3327 14.6682 10.1097 14.6682H2.20159C1.97863 14.6682 1.79748 14.5084 1.79748 14.3118V4.30977C1.79748 4.11317 1.97863 3.95343 2.20159 3.95343H10.1097C10.3327 3.95343 10.5138 4.11317 10.5138 4.30977V14.3118Z" fill="white" stroke="white" stroke-width="0.2"/>
<path d="M13.1376 0.5H5.22949C4.48745 0.5 3.88477 1.03144 3.88477 1.68575C3.88477 1.91614 4.09379 2.10045 4.35507 2.10045C4.61635 2.10045 4.82538 1.91614 4.82538 1.68575C4.82538 1.48915 5.00653 1.32941 5.22949 1.32941H13.1376C13.3606 1.32941 13.5417 1.48915 13.5417 1.68575V11.6909C13.5417 11.8875 13.3606 12.0472 13.1376 12.0472C12.8763 12.0472 12.6673 12.2315 12.6673 12.4619C12.6673 12.6923 12.8763 12.8766 13.1376 12.8766C13.8796 12.8766 14.4823 12.3452 14.4823 11.6909V1.68575C14.4823 1.03144 13.8796 0.5 13.1376 0.5Z" fill="white" stroke="white" stroke-width="0.2"/>
</svg>
