<svg width="22" height="22" viewBox="0 0 22 22" fill="none" xmlns="http://www.w3.org/2000/svg">
<path d="M20.461 9.6821C20.4604 9.68164 20.4599 9.68103 20.4594 9.68057L12.301 1.53835C11.9533 1.19112 11.4909 1 10.9991 1C10.5073 1 10.045 1.19112 9.69709 1.53835L1.54293 9.67646C1.54018 9.6792 1.53728 9.6821 1.53469 9.68484C0.820577 10.4017 0.821798 11.5647 1.5382 12.2797C1.8655 12.6065 2.29763 12.7957 2.75982 12.8156C2.77874 12.8175 2.79766 12.8184 2.81674 12.8184H3.14175V18.8104C3.14175 19.9963 4.10855 20.9611 5.29675 20.9611H8.48859C8.81223 20.9611 9.07453 20.6991 9.07453 20.3763V15.6784C9.07453 15.1373 9.51566 14.6972 10.0578 14.6972H11.9404C12.4826 14.6972 12.9236 15.1373 12.9236 15.6784V20.3763C12.9236 20.6991 13.1859 20.9611 13.5095 20.9611H16.7013C17.8897 20.9611 18.8563 19.9963 18.8563 18.8104V12.8184H19.1579C19.6495 12.8184 20.1118 12.6272 20.4599 12.2799C21.1771 11.5638 21.1774 10.3986 20.461 9.6821ZM19.6312 11.4529C19.5047 11.5792 19.3365 11.6488 19.1579 11.6488H18.2704C17.9468 11.6488 17.6845 11.9106 17.6845 12.2336V18.8104C17.6845 19.3513 17.2435 19.7915 16.7013 19.7915H14.0954V15.6784C14.0954 14.4925 13.1288 13.5276 11.9404 13.5276H10.0578C8.86945 13.5276 7.90265 14.4925 7.90265 15.6784V19.7915H5.29675C4.75476 19.7915 4.31363 19.3513 4.31363 18.8104V12.2336C4.31363 11.9106 4.05133 11.6488 3.72769 11.6488H2.85549C2.84634 11.6482 2.83733 11.6477 2.82803 11.6476C2.65347 11.6445 2.48974 11.5754 2.36706 11.4528C2.10613 11.1924 2.10613 10.7685 2.36706 10.508C2.36721 10.508 2.36721 10.5078 2.36736 10.5077L2.36782 10.5072L10.5259 2.36529C10.6523 2.23904 10.8203 2.16959 10.9991 2.16959C11.1778 2.16959 11.3458 2.23904 11.4723 2.36529L19.6286 10.5055C19.6298 10.5067 19.6312 10.508 19.6324 10.5092C19.892 10.7701 19.8915 11.193 19.6312 11.4529Z" fill="#76746F" stroke="#76746F" stroke-width="0.5"/>
</svg>
