<svg width="36" height="36" viewBox="0 0 36 36" fill="none" xmlns="http://www.w3.org/2000/svg">
<path d="M33.1725 8.86523H23.9922C23.4303 8.86825 22.8922 9.09257 22.4946 9.48956C22.0969 9.88656 21.8717 10.4243 21.8678 10.9861L21.8608 11.9117L21.7869 11.9124C21.052 11.9167 20.3487 12.2115 19.8303 12.7323C19.3119 13.2532 19.0205 13.9579 19.0196 14.6928C19.0188 15.4277 19.3086 16.1331 19.8258 16.6551C20.343 17.1772 21.0456 17.4735 21.7805 17.4795L21.8212 17.4801L21.7931 21.5965H18.2142C18.2309 21.3679 18.2198 21.1381 18.1811 20.9122C18.0796 20.3138 17.7844 19.7653 17.3408 19.3511C16.8973 18.9369 16.3299 18.6798 15.726 18.6194C15.3421 18.5802 14.9543 18.6226 14.5879 18.744C14.2216 18.8654 13.8851 19.0628 13.6005 19.3235C13.313 19.5855 13.0832 19.9046 12.926 20.2604C12.7687 20.6162 12.6874 21.0009 12.6873 21.3899C12.6873 21.4587 12.6899 21.5276 12.6951 21.5965H10.8177C10.2529 21.5987 9.71207 21.8249 9.31381 22.2254C8.91556 22.6259 8.69243 23.168 8.69336 23.7328V33.0715C8.69243 33.6363 8.91556 34.1784 9.31381 34.5789C9.71207 34.9794 10.2529 35.2056 10.8177 35.2078H21.8039L33.0848 35.2957H33.1017C33.6586 35.2968 34.1933 35.0771 34.5885 34.6848C34.7895 34.4876 34.9493 34.2524 35.0587 33.9929C35.168 33.7334 35.2248 33.4547 35.2256 33.1731L35.2942 22.4765H35.2969V11.0015C35.2978 10.4367 35.0747 9.8946 34.6764 9.49411C34.2781 9.09361 33.7373 8.86745 33.1725 8.86523ZM21.6957 34.3641H10.8183C10.4772 34.3621 10.1509 34.2249 9.91078 33.9826C9.6707 33.7403 9.53655 33.4126 9.53774 33.0715V23.733C9.53655 23.3919 9.6707 23.0643 9.91078 22.8219C10.1509 22.5796 10.4772 22.4424 10.8183 22.4405H12.9832C13.0693 22.4406 13.1544 22.4218 13.2324 22.3853C13.3103 22.3489 13.3794 22.2957 13.4345 22.2295C13.4907 22.1623 13.5313 22.0836 13.5536 21.9989C13.5759 21.9142 13.5792 21.8256 13.5633 21.7395C13.504 21.414 13.5285 21.0789 13.6343 20.7656C13.7402 20.4522 13.924 20.1709 14.1685 19.9481C14.3663 19.7671 14.6003 19.63 14.8549 19.5458C15.1095 19.4615 15.379 19.4321 15.6458 19.4594C16.0653 19.5017 16.4593 19.6807 16.7672 19.9688C17.0751 20.2569 17.2799 20.6381 17.35 21.0539C17.389 21.2804 17.3882 21.5119 17.3474 21.7381C17.3315 21.8243 17.3349 21.9129 17.3572 21.9977C17.3795 22.0824 17.4201 22.1612 17.4763 22.2285C17.5316 22.2949 17.6008 22.3483 17.6791 22.3849C17.7574 22.4215 17.8427 22.4404 17.9291 22.4403H21.7875L21.7631 25.6255C21.041 25.5666 20.3246 25.7935 19.7681 26.2574C19.2116 26.7213 18.8595 27.3851 18.7874 28.106C18.7471 28.4941 18.7882 28.8863 18.908 29.2576C19.0278 29.6289 19.2236 29.9712 19.4831 30.2625C19.7396 30.549 20.0531 30.7789 20.4035 30.9375C20.7538 31.0961 21.1334 31.1799 21.5179 31.1836C21.5852 31.184 21.6529 31.1821 21.7204 31.1777L21.6957 34.3641ZM34.3818 33.1678C34.3814 33.3384 34.3471 33.5073 34.2809 33.6646C34.2146 33.8219 34.1179 33.9645 33.9961 34.0841C33.7583 34.3202 33.4366 34.4525 33.1015 34.452H33.0914L22.5394 34.3698L22.566 30.8969C22.5666 30.8101 22.5481 30.7241 22.5117 30.6452C22.4753 30.5663 22.422 30.4964 22.3556 30.4405C22.2891 30.3845 22.2111 30.3439 22.1272 30.3215C22.0433 30.2991 21.9554 30.2955 21.8699 30.3109C21.7558 30.3313 21.6401 30.341 21.5242 30.3398C21.2547 30.338 20.9886 30.2801 20.7428 30.1698C20.4969 30.0595 20.2768 29.8991 20.0963 29.699C19.9159 29.4988 19.7791 29.2633 19.6948 29.0074C19.6104 28.7515 19.5803 28.4808 19.6064 28.2126C19.6324 27.9444 19.7141 27.6845 19.8461 27.4496C19.9781 27.2148 20.1577 27.0099 20.3733 26.8483C20.5888 26.6866 20.8357 26.5716 21.0982 26.5107C21.3607 26.4497 21.633 26.4441 21.8978 26.4943C21.9832 26.5109 22.0713 26.5086 22.1558 26.4873C22.2402 26.4661 22.319 26.4265 22.3864 26.3714C22.4538 26.3163 22.5083 26.247 22.5459 26.1685C22.5835 26.0899 22.6034 26.0041 22.6041 25.917L22.6308 22.4439L26.2017 22.4727C26.1845 22.7026 26.1955 22.9337 26.2344 23.161C26.3359 23.7593 26.6312 24.3078 27.0747 24.722C27.5183 25.1362 28.0856 25.3933 28.6895 25.4536C28.7819 25.4625 28.8738 25.4669 28.9651 25.4669C29.6499 25.4685 30.3103 25.2125 30.8151 24.7497C31.1027 24.4878 31.3324 24.1687 31.4896 23.8129C31.6469 23.457 31.7281 23.0723 31.7282 22.6833C31.7282 22.6146 31.7257 22.5456 31.7206 22.4767H34.4502L34.3818 33.1678ZM34.4531 21.6328H31.4329C31.3468 21.6326 31.2618 21.6515 31.1838 21.6879C31.1058 21.7244 31.0368 21.7776 30.9817 21.8437C30.9256 21.9109 30.885 21.9896 30.8628 22.0742C30.8406 22.1588 30.8373 22.2473 30.8531 22.3333C30.9124 22.6587 30.8879 22.9939 30.7821 23.3072C30.6762 23.6206 30.4924 23.9019 30.2479 24.1247C30.0501 24.3058 29.8162 24.4429 29.5616 24.5271C29.307 24.6114 29.0375 24.6408 28.7707 24.6134C28.3512 24.5711 27.9572 24.3921 27.6493 24.1041C27.3414 23.8161 27.1366 23.4349 27.0664 23.0191C27.0273 22.7922 27.0283 22.5601 27.0693 22.3335C27.0851 22.2476 27.0819 22.1594 27.0599 22.075C27.0379 21.9905 26.9977 21.912 26.942 21.8448C26.8872 21.7785 26.8184 21.7249 26.7407 21.688C26.6629 21.6511 26.578 21.6317 26.492 21.6312L22.6368 21.6002L22.6677 17.0678C22.6677 17.0602 22.6671 17.0528 22.6667 17.0453C22.6667 17.0391 22.6667 17.0328 22.6659 17.0266C22.6652 17.0189 22.6638 17.0114 22.6627 17.0038C22.6619 16.9974 22.6612 16.9909 22.66 16.9846C22.6586 16.9772 22.6564 16.97 22.6547 16.9628C22.6529 16.9555 22.6518 16.9502 22.65 16.9441C22.6479 16.9371 22.6452 16.9301 22.643 16.923C22.6408 16.916 22.639 16.911 22.6365 16.905C22.6341 16.8991 22.6306 16.892 22.6275 16.8856C22.6245 16.8791 22.6222 16.8737 22.6192 16.8679C22.6162 16.8622 22.6121 16.8559 22.6086 16.8499C22.605 16.8438 22.6021 16.8384 22.5984 16.8329C22.5948 16.8274 22.5905 16.8219 22.5864 16.8164C22.5823 16.8109 22.5787 16.8053 22.5745 16.8001C22.5704 16.7948 22.5658 16.7902 22.5614 16.7853C22.5571 16.7804 22.5524 16.7748 22.5474 16.7698C22.5424 16.7649 22.538 16.7611 22.5333 16.7568C22.5286 16.7524 22.5231 16.7468 22.5176 16.7422C22.5121 16.7376 22.5078 16.7347 22.5029 16.731C22.4981 16.7272 22.4914 16.7218 22.4854 16.7176C22.4793 16.7134 22.475 16.7111 22.4698 16.7078C22.4634 16.7038 22.4573 16.6997 22.4508 16.6961C22.4444 16.6924 22.4396 16.6905 22.434 16.6877C22.4283 16.6849 22.421 16.6807 22.4141 16.6779C22.4073 16.6752 22.4022 16.6734 22.3962 16.6709C22.3902 16.6684 22.3826 16.6655 22.3755 16.6632C22.3685 16.661 22.363 16.6597 22.3566 16.658C22.3502 16.6564 22.3425 16.654 22.3355 16.6524C22.3284 16.6509 22.3222 16.6502 22.3155 16.649C22.3088 16.6479 22.3014 16.6464 22.2937 16.6455C22.286 16.6447 22.2796 16.6446 22.2726 16.6442C22.2656 16.6438 22.2591 16.6429 22.2522 16.6429L21.7868 16.6358C21.2752 16.6309 20.7862 16.424 20.4263 16.0603C20.0665 15.6966 19.8649 15.2054 19.8655 14.6937C19.8661 14.182 20.0689 13.6913 20.4296 13.3284C20.7903 12.9655 21.2797 12.7598 21.7914 12.7561L22.2841 12.7509C22.29 12.7509 22.2957 12.7501 22.3015 12.7499C22.3094 12.7494 22.3172 12.7492 22.325 12.7484C22.3315 12.7477 22.3379 12.7464 22.3444 12.7454C22.3509 12.7444 22.3593 12.7433 22.3665 12.7418C22.3738 12.7404 22.3798 12.7385 22.3865 12.7367C22.3932 12.735 22.4001 12.7334 22.4067 12.7313C22.4133 12.7292 22.4201 12.7264 22.4269 12.7243C22.4336 12.7221 22.4392 12.7199 22.4452 12.7172C22.4511 12.7146 22.4584 12.711 22.4651 12.7077C22.4707 12.705 22.4764 12.7024 22.4818 12.6994C22.4884 12.6959 22.4947 12.6918 22.5011 12.6878C22.5061 12.6847 22.5114 12.6817 22.5163 12.6784C22.5226 12.6741 22.5285 12.6694 22.5344 12.6649C22.5392 12.6613 22.5441 12.6578 22.5485 12.654C22.5542 12.6493 22.5596 12.6442 22.565 12.6391C22.5695 12.635 22.5741 12.631 22.5784 12.6267C22.5827 12.6225 22.5882 12.6161 22.593 12.6108C22.5978 12.6054 22.6015 12.6016 22.6055 12.5967C22.6095 12.5919 22.614 12.5855 22.6183 12.5798C22.6225 12.5741 22.6261 12.5696 22.6297 12.5642C22.6334 12.5587 22.6368 12.5524 22.6406 12.5464C22.6445 12.5404 22.6477 12.5352 22.6507 12.5294C22.6537 12.5237 22.6568 12.517 22.6598 12.5107C22.6628 12.5045 22.6657 12.4988 22.6683 12.4926C22.6709 12.4864 22.6733 12.4795 22.6754 12.4729C22.6774 12.4663 22.6801 12.4604 22.6824 12.454C22.6847 12.4476 22.6861 12.4399 22.6879 12.4329C22.6898 12.4259 22.6914 12.42 22.6927 12.4134C22.6939 12.4068 22.695 12.399 22.6962 12.3918C22.6973 12.3847 22.6983 12.3785 22.6991 12.3716C22.6998 12.3648 22.7 12.3569 22.7002 12.3495C22.7002 12.3438 22.7012 12.3382 22.7013 12.3324L22.7111 10.992C22.7128 10.6527 22.8482 10.3277 23.0879 10.0875C23.3276 9.84734 23.6523 9.71128 23.9917 9.70884H33.1725C33.5136 9.71082 33.8401 9.84805 34.0802 10.0904C34.3203 10.3328 34.4544 10.6606 34.4531 11.0017V21.6328Z" fill="#B02AAC" stroke="#B02AAC" stroke-width="0.2"/>
<path d="M32.3364 18.0879C32.2245 18.0879 32.1172 18.1323 32.0381 18.2115C31.959 18.2906 31.9146 18.3979 31.9146 18.5098V19.3857C31.9146 19.4976 31.959 19.6049 32.0381 19.684C32.1172 19.7631 32.2245 19.8076 32.3364 19.8076C32.4483 19.8076 32.5556 19.7631 32.6347 19.684C32.7139 19.6049 32.7583 19.4976 32.7583 19.3857V18.5098C32.7583 18.3979 32.7139 18.2906 32.6347 18.2115C32.5556 18.1323 32.4483 18.0879 32.3364 18.0879Z" fill="#B02AAC" stroke="#B02AAC" stroke-width="0.2"/>
<path d="M32.3364 11.3867C32.2245 11.3867 32.1172 11.4312 32.0381 11.5103C31.959 11.5894 31.9146 11.6967 31.9146 11.8086V16.3953C31.9146 16.5072 31.959 16.6145 32.0381 16.6936C32.1172 16.7727 32.2245 16.8172 32.3364 16.8172C32.4483 16.8172 32.5556 16.7727 32.6347 16.6936C32.7139 16.6145 32.7583 16.5072 32.7583 16.3953V11.8086C32.7583 11.6967 32.7139 11.5894 32.6347 11.5103C32.5556 11.4312 32.4483 11.3867 32.3364 11.3867Z" fill="#B02AAC" stroke="#B02AAC" stroke-width="0.2"/>
<path d="M32.4976 33.1162C32.6094 33.1162 32.7168 33.0717 32.7959 32.9926C32.875 32.9135 32.9194 32.8062 32.9194 32.6943V31.8184C32.9194 31.7065 32.875 31.5992 32.7959 31.52C32.7168 31.4409 32.6094 31.3965 32.4976 31.3965C32.3857 31.3965 32.2784 31.4409 32.1992 31.52C32.1201 31.5992 32.0757 31.7065 32.0757 31.8184V32.6943C32.0757 32.8062 32.1201 32.9135 32.1992 32.9926C32.2784 33.0717 32.3857 33.1162 32.4976 33.1162Z" fill="#B02AAC" stroke="#B02AAC" stroke-width="0.2"/>
<path d="M32.4976 30.1255C32.6094 30.1255 32.7168 30.081 32.7959 30.0019C32.875 29.9228 32.9194 29.8155 32.9194 29.7036V25.1172C32.9194 25.0053 32.875 24.898 32.7959 24.8189C32.7168 24.7398 32.6094 24.6953 32.4976 24.6953C32.3857 24.6953 32.2784 24.7398 32.1992 24.8189C32.1201 24.898 32.0757 25.0053 32.0757 25.1172V29.7036C32.0757 29.8155 32.1201 29.9228 32.1992 30.0019C32.2784 30.081 32.3857 30.1255 32.4976 30.1255Z" fill="#B02AAC" stroke="#B02AAC" stroke-width="0.2"/>
<path d="M11.0259 18.2005C11.389 18.201 11.7461 18.1084 12.0632 17.9316C12.3803 17.7548 12.6468 17.4997 12.8373 17.1907L13.8494 15.5471C13.8932 15.4762 13.9216 15.3968 13.9326 15.3142C13.9437 15.2316 13.9372 15.1475 13.9136 15.0676C13.8899 14.9876 13.8497 14.9136 13.7955 14.8502C13.7413 14.7869 13.6744 14.7357 13.599 14.6999C13.1332 14.4811 12.773 14.0868 12.597 13.6031C12.4211 13.1195 12.4438 12.5859 12.6601 12.1189C12.8764 11.6519 13.2688 11.2895 13.7515 11.111C14.2342 10.9325 14.768 10.9523 15.2361 11.1662C15.3723 11.2307 15.5007 11.3106 15.6188 11.4044C15.6842 11.4569 15.7601 11.4948 15.8413 11.5158C15.9226 11.5367 16.0073 11.5402 16.09 11.5259C16.1727 11.5117 16.2514 11.48 16.3209 11.4331C16.3904 11.3861 16.4492 11.3249 16.4933 11.2536L17.7247 9.25389C18.0227 8.77012 18.1164 8.18782 17.9852 7.63498C17.854 7.08215 17.5087 6.60402 17.0251 6.30569L15.0734 5.10763C15.4946 4.51689 15.6693 3.78545 15.5607 3.06814C15.452 2.35083 15.0685 1.70394 14.4913 1.26442C14.184 1.02896 13.8302 0.861524 13.4532 0.773202C13.0763 0.68488 12.6849 0.677696 12.305 0.752125C11.9247 0.825849 11.5641 0.978439 11.2463 1.20006C10.9286 1.42168 10.6608 1.70741 10.4603 2.03884C10.4253 2.09664 10.3925 2.15577 10.3618 2.21624L8.76083 1.23355C8.52252 1.08737 8.25762 0.989823 7.98142 0.94654C7.70521 0.903257 7.42317 0.915095 7.15157 0.981372C6.87997 1.04765 6.62417 1.16705 6.39895 1.33269C6.17373 1.49833 5.98354 1.70693 5.83935 1.94645L1.01296 9.92038C0.720889 10.4042 0.631427 10.9836 0.76399 11.533C0.896552 12.0823 1.24044 12.5572 1.721 12.8546L3.10461 13.7038C3.17163 13.7448 3.24652 13.7714 3.32443 13.7817C3.40234 13.792 3.48156 13.7859 3.55697 13.7638C3.63237 13.7416 3.7023 13.7039 3.76225 13.6531C3.82219 13.6022 3.87081 13.5394 3.90498 13.4686C4.00897 13.2531 4.15698 13.0618 4.33948 12.907C4.52198 12.7522 4.7349 12.6374 4.96451 12.5699C5.19411 12.5025 5.43531 12.4839 5.67253 12.5155C5.90974 12.547 6.13772 12.6279 6.34173 12.753C6.54575 12.8781 6.72128 13.0445 6.857 13.2416C6.99272 13.4387 7.08561 13.6621 7.12968 13.8973C7.17376 14.1325 7.16803 14.3743 7.11287 14.6072C7.05771 14.8401 6.95435 15.0588 6.80945 15.2492C6.76156 15.3117 6.72733 15.3836 6.70897 15.4601C6.6906 15.5367 6.68852 15.6162 6.70284 15.6937C6.71716 15.7711 6.74757 15.8446 6.79211 15.9095C6.83665 15.9745 6.89432 16.0293 6.96139 16.0705L9.92443 17.889C10.2556 18.0929 10.637 18.2007 11.0259 18.2005ZM7.99738 14.0469C7.96231 13.51 7.75871 12.9978 7.41559 12.5834C7.07247 12.1689 6.60731 11.8733 6.08639 11.7387C5.56546 11.604 5.01532 11.6372 4.51434 11.8334C4.01336 12.0297 3.58707 12.379 3.29621 12.8317L2.16235 12.1356C1.87131 11.9552 1.66317 11.6673 1.58311 11.3343C1.50306 11.0014 1.55756 10.6504 1.73478 10.3574L6.56082 2.3833C6.64742 2.23897 6.76176 2.11322 6.89724 2.01334C7.03272 1.91345 7.18665 1.84141 7.35014 1.80136C7.51363 1.76132 7.68343 1.75407 7.84974 1.78003C8.01605 1.806 8.17556 1.86466 8.31906 1.95264L10.1683 3.0872C10.2419 3.13259 10.3246 3.16111 10.4105 3.17073C10.4964 3.18035 10.5834 3.17081 10.6652 3.14282C10.748 3.11464 10.8236 3.06852 10.8864 3.00774C10.9493 2.94696 10.9979 2.87304 11.0289 2.79126C11.1455 2.48402 11.3385 2.21161 11.5898 1.99982C11.8411 1.78803 12.1422 1.64387 12.4648 1.58097C12.7288 1.52942 13.0007 1.53461 13.2625 1.59618C13.5244 1.65775 13.7701 1.77429 13.9835 1.93809C14.1965 2.10092 14.3737 2.30594 14.5038 2.54035C14.634 2.77476 14.7144 3.0335 14.74 3.30039C14.7656 3.56729 14.7359 3.8366 14.6527 4.09149C14.5695 4.34638 14.4346 4.58136 14.2565 4.78173C14.1992 4.84601 14.1568 4.92209 14.1322 5.00459C14.1077 5.08708 14.1015 5.17396 14.1143 5.25909C14.1269 5.34516 14.1583 5.4274 14.2062 5.5C14.2542 5.5726 14.3175 5.63378 14.3917 5.6792L16.5842 7.02484C16.8769 7.20595 17.0858 7.49581 17.165 7.83078C17.2442 8.16575 17.1873 8.51846 17.0067 8.81148L15.9168 10.581C15.8145 10.5152 15.7081 10.4561 15.5982 10.4039C15.0264 10.1357 14.3802 10.0708 13.7665 10.2197C13.1528 10.3687 12.6083 10.7227 12.2232 11.2232C11.9839 11.5343 11.8126 11.8921 11.7203 12.2735C11.628 12.655 11.6168 13.0516 11.6875 13.4376C11.7581 13.8236 11.909 14.1906 12.1303 14.5146C12.3517 14.8387 12.6386 15.1126 12.9725 15.3188C12.9789 15.3228 12.9852 15.3266 12.9915 15.3304L12.1188 16.7477C11.9418 17.0355 11.6579 17.2415 11.3294 17.3206C11.0009 17.3996 10.6545 17.3453 10.3659 17.1696L7.65221 15.5043C7.90987 15.0637 8.03006 14.5562 7.99738 14.0469Z" fill="#B02AAC" stroke="#B02AAC" stroke-width="0.2"/>
</svg>
